<svg xmlns="http://www.w3.org/2000/svg" viewBox="0 0 256 256">
  <defs>
    <linearGradient id="bg" x1="0" y1="0" x2="256" y2="256" gradientUnits="userSpaceOnUse">
      <stop stop-color="#0a84ff"/>
      <stop offset="0.48" stop-color="#007aff"/>
      <stop offset="1" stop-color="#5856d6"/>
    </linearGradient>
  </defs>
  <rect width="256" height="256" rx="48.762" fill="url(#bg)"/>
  <rect width="256" height="256" rx="48.762" fill="none" stroke="#ffffff" stroke-opacity="0.28" stroke-width="3"/>
  <g transform="translate(60.952 60.952) scale(5.587)" fill="none" stroke="#ffffff" stroke-width="2" stroke-linecap="round" stroke-linejoin="round">
    <path d="M2.586 17.414A2 2 0 0 0 2 18.828V21a1 1 0 0 0 1 1h3a1 1 0 0 0 1-1v-1a1 1 0 0 1 1-1h1a1 1 0 0 0 1-1v-1a1 1 0 0 1 1-1h.172a2 2 0 0 0 1.414-.586l.814-.814a6.5 6.5 0 1 0-4-4z"/>
    <circle cx="16.5" cy="7.5" r=".5" fill="#ffffff"/>
  </g>
</svg>
